<svg width="111" height="97" viewBox="0 0 111 97" fill="none" xmlns="http://www.w3.org/2000/svg">
<path d="M55.3682 96.9777H11.8285C9.04678 97.0704 6.32568 96.1828 4.1766 94.4819C2.02752 92.781 0.59845 90.3839 0.158097 87.7412C-0.300845 85.0851 0.247056 82.3587 1.70216 80.0583C10.6435 64.8539 19.579 49.6321 28.5083 34.3931L45.0983 6.1308C46.0477 4.26232 47.5319 2.69309 49.3765 1.60745C51.2211 0.521803 53.3494 -0.0351643 55.5118 0.00184126C57.6537 -0.0360536 59.7629 0.511675 61.5938 1.58142C63.4246 2.65117 64.9018 4.19894 65.8536 6.04449C80.3249 30.71 94.8023 55.3871 109.286 80.0756C110.174 81.4645 110.734 83.0244 110.926 84.6446C111.118 86.2648 110.936 87.9057 110.395 89.4511C109.853 90.9964 108.965 92.4083 107.793 93.5867C106.621 94.7651 105.193 95.6812 103.612 96.2699C102.055 96.7931 100.413 97.0388 98.7643 96.995L55.3682 96.9777ZM49.9818 51.1054V58.5983C49.9517 59.2678 50.0305 59.9376 50.2153 60.5837C50.5984 61.7893 51.4118 62.8263 52.5122 63.5116C53.6125 64.197 54.9291 64.4869 56.23 64.3302C57.5382 64.1911 58.7481 63.5961 59.6313 62.6578C60.5145 61.7194 61.0099 60.5026 61.0239 59.2371C61.0239 53.9023 61.0239 48.5675 61.0239 43.2327C61.0603 42.5143 60.9448 41.7964 60.6844 41.1222C60.424 40.448 60.024 39.8316 59.5088 39.3103C58.9935 38.789 58.3736 38.3736 57.6866 38.0893C56.9996 37.805 56.2597 37.6577 55.5118 37.6562C54.7615 37.6554 54.0191 37.801 53.329 38.0841C52.639 38.3672 52.0158 38.7818 51.4972 39.3031C50.9786 39.8244 50.5755 40.4414 50.3119 41.1168C50.0484 41.7922 49.9299 42.512 49.9639 43.2327C49.8921 45.7706 49.91 48.3948 49.91 51.0191L49.9818 51.1054ZM61.0419 75.0515C61.0466 74.3532 60.9082 73.6609 60.6347 73.014C60.3611 72.3671 59.9578 71.7783 59.4476 71.2813C58.9375 70.7843 58.3303 70.3888 57.6612 70.1174C56.992 69.846 56.2739 69.704 55.5477 69.6995C54.8108 69.6971 54.0808 69.8362 53.4007 70.1089C52.7206 70.3815 52.1041 70.7822 51.5873 71.2872C51.0704 71.7922 50.6636 72.3915 50.391 73.0498C50.1184 73.7081 49.9855 74.4122 49.9998 75.1207C50.0045 75.8167 50.1518 76.505 50.4331 77.1463C50.7145 77.7876 51.1245 78.3695 51.6397 78.8584C52.1548 79.3474 52.765 79.734 53.4355 79.9962C54.1061 80.2583 54.8238 80.3909 55.5477 80.3864C56.2739 80.3729 56.9903 80.222 57.6559 79.9422C58.3215 79.6625 58.9233 79.2593 59.4268 78.7559C59.9303 78.2525 60.3258 77.6587 60.5906 77.0082C60.8554 76.3578 60.9843 75.6636 60.97 74.9652L61.0419 75.0515Z" fill="#33EAFF"/>
</svg>
