<svg width="36" height="36" viewBox="0 0 36 36" fill="none" xmlns="http://www.w3.org/2000/svg">
<path d="M27.5231 8.89082C28.4708 7.43563 29.3861 6.01278 30.323 4.57915C30.5317 4.24881 30.8138 3.97138 31.1474 3.76834C31.481 3.5653 31.857 3.44226 32.246 3.40886C32.635 3.37545 33.0265 3.4325 33.3898 3.5757C33.753 3.71891 34.0782 3.9442 34.34 4.23414C34.7331 4.65257 34.9711 5.19326 35.0142 5.76601C35.0573 6.33877 34.903 6.90917 34.577 7.38184C33.5001 9.07417 32.4231 10.7449 31.2815 12.4264C30.42 13.7523 29.5692 15.078 28.6969 16.3931C28.5717 16.5758 28.5216 16.7997 28.5569 17.0184C29.0092 20.4533 29.4651 23.8989 29.9246 27.3554C29.9916 27.6641 29.9921 27.9837 29.9259 28.2926C29.8597 28.6014 29.7284 28.8925 29.5409 29.1465C29.3533 29.4006 29.1137 29.6117 28.8382 29.7657C28.5627 29.9197 28.2576 30.0132 27.9431 30.0397C25.2576 30.4283 22.6169 31.0816 20.0599 31.9905C16.8292 32.9283 13.6953 33.9094 10.5184 34.8687C10.2096 34.9847 9.87957 35.0332 9.55047 35.0111C9.22138 34.989 8.90087 34.8967 8.61027 34.7406C8.31966 34.5844 8.06578 34.3679 7.86555 34.1056C7.66531 33.8432 7.52332 33.5412 7.44921 33.2195L0.14764 8.88003C0.0331975 8.57806 -0.0155923 8.25525 0.00434851 7.9329C0.0242893 7.61055 0.112539 7.29605 0.263325 7.01052C0.414112 6.72498 0.623945 6.47487 0.878823 6.27681C1.1337 6.07876 1.42785 5.93724 1.7416 5.86181C3.10929 5.44142 4.48769 5.03192 5.85539 4.6331C6.07077 4.56842 6.18917 4.50361 6.19994 4.22335C6.23774 3.66404 6.47686 3.1376 6.87289 2.74121C7.26891 2.34482 7.795 2.10535 8.35379 2.06751L17.1631 0.91433L23.9692 0.0195742C24.2956 -0.0228298 24.6273 0.00381768 24.9426 0.097997C25.258 0.192176 25.5501 0.351698 25.7999 0.566165C26.0497 0.780632 26.2516 1.04538 26.3926 1.34302C26.5337 1.64067 26.6107 1.96451 26.6185 2.29383C26.877 4.44967 27.1677 6.60551 27.4477 8.76134C27.5231 8.75056 27.5231 8.78303 27.5231 8.89082ZM27.5231 18.2147C27.4154 18.3548 27.34 18.4411 27.2754 18.5381L25.1969 21.7719C25.1101 21.9205 25.0012 22.0551 24.8739 22.1708L22.0092 24.6501C21.77 24.8652 21.4679 24.9974 21.1476 25.0272C20.9059 25.0465 20.6631 25.0072 20.4399 24.9125C20.2166 24.8178 20.0194 24.6705 19.8651 24.4833C19.7108 24.296 19.6039 24.0741 19.5534 23.8367C19.503 23.5992 19.5105 23.3532 19.5754 23.1193C19.7046 22.6342 19.8662 22.1493 20.017 21.6427L16.937 22.0414L12.6293 22.6019C12.1985 22.6019 11.94 22.451 11.9077 22.1061C11.8754 21.7612 12.0801 21.5347 12.5108 21.4808C15.0416 21.1359 17.5616 20.791 20.0493 20.4676C20.3185 20.4676 20.4692 20.36 20.5339 20.069C20.6822 19.4382 20.957 18.8439 21.3415 18.3226C21.8369 17.6112 22.2892 16.8781 22.8061 16.0912L21.7292 16.2207C20.5231 16.3824 19.3061 16.5656 18.0892 16.7165C18.0086 16.7355 17.9249 16.7366 17.8438 16.7199C17.7627 16.7033 17.6862 16.6692 17.6196 16.6199C17.553 16.5707 17.498 16.5076 17.4582 16.4349C17.4184 16.3623 17.3948 16.2818 17.3892 16.1991C17.3892 15.8758 17.5831 15.6493 17.9816 15.5954L23.3662 14.8733C23.4435 14.8729 23.5193 14.8516 23.5856 14.8117C23.6519 14.7719 23.7063 14.7151 23.7431 14.647C24.6154 13.2996 25.4984 11.963 26.3815 10.6156C26.4219 10.5645 26.4516 10.5055 26.4682 10.4424C26.4849 10.3794 26.4884 10.3135 26.4785 10.249C26.1267 7.58295 25.7677 4.9242 25.4016 2.27252C25.3933 2.10967 25.3506 1.95026 25.2763 1.80514C25.202 1.66002 25.0977 1.53252 24.9705 1.43066C24.8433 1.3288 24.696 1.25502 24.5383 1.21434C24.3805 1.17365 24.216 1.16696 24.0554 1.1946C22.5585 1.37785 21.0723 1.58243 19.5754 1.77645L13.1138 2.61726C11.4877 2.83285 9.88304 3.03777 8.23534 3.27491C8.08321 3.28579 7.93511 3.32875 7.80087 3.40123C7.66663 3.4737 7.54935 3.57391 7.4567 3.69518C7.36405 3.81645 7.29816 3.956 7.26346 4.10466C7.22875 4.25332 7.22607 4.40776 7.25544 4.55757C7.43852 6.04509 7.63226 7.52198 7.82611 9.00951C8.28559 12.4588 8.74151 15.908 9.19382 19.3574C9.64613 22.8067 10.1128 26.3532 10.5939 29.9965C10.5999 30.1622 10.6419 30.3246 10.7169 30.4723C10.792 30.6201 10.8982 30.7498 11.0283 30.8523C11.1585 30.9549 11.3094 31.0279 11.4706 31.0663C11.6317 31.1046 11.7993 31.1074 11.9616 31.0745L19.36 30.1042L27.6954 29.0263C27.8621 29.0205 28.0254 28.9783 28.1739 28.9026C28.3225 28.8268 28.4527 28.7193 28.5553 28.5878C28.6579 28.4563 28.7306 28.3039 28.7681 28.1412C28.8056 27.9786 28.807 27.8097 28.7723 27.6465C28.5785 26.256 28.4062 24.8548 28.2231 23.4643L27.5231 18.2147ZM6.29696 5.68943L2.09693 6.95051C1.91366 6.9796 1.73964 7.05115 1.58871 7.1592C1.43778 7.26725 1.31405 7.40896 1.22732 7.57316C1.1406 7.73736 1.09324 7.91933 1.08903 8.10501C1.08481 8.2907 1.12395 8.47495 1.20314 8.64292C3.63698 16.7129 6.06713 24.7901 8.49379 32.8745C8.52005 33.0611 8.58963 33.2391 8.6969 33.394C8.80417 33.5489 8.94614 33.6765 9.11153 33.7666C9.27691 33.8567 9.46113 33.9066 9.64933 33.9127C9.83753 33.9188 10.0246 33.8809 10.1954 33.8016L16.7862 31.8074L17.7123 31.5163C17.6565 31.491 17.5959 31.4779 17.5346 31.4779C17.4733 31.4779 17.4128 31.491 17.357 31.5163C15.6231 31.7427 13.8892 31.9584 12.1554 32.1955C11.8589 32.2463 11.5552 32.2376 11.2621 32.17C10.969 32.1024 10.6921 31.9773 10.4477 31.8018C10.2033 31.6264 9.99605 31.4041 9.83811 31.1479C9.68017 30.8916 9.57474 30.6066 9.52773 30.3092C9.29081 28.6707 9.08621 27.0754 8.87082 25.3938C8.54775 22.8715 8.21386 20.3599 7.89079 17.8484L6.88919 10.2274C6.75996 8.686 6.56613 7.18771 6.37229 5.65706L6.29696 5.68943ZM31.6692 9.74242L31.5184 9.61294C30.84 9.17099 30.1615 8.73985 29.4938 8.28712C29.2999 8.15777 29.2462 8.28723 29.16 8.39502C26.8482 11.9881 24.5293 15.5451 22.2031 19.0663C22.0847 19.2388 22.1062 19.3143 22.2785 19.4329C22.9318 19.8425 23.578 20.2628 24.217 20.694C24.4216 20.8341 24.4862 20.7696 24.6047 20.5971L31.5292 9.95795L31.6692 9.74242ZM32.4446 4.55757C32.1682 4.56377 31.8988 4.64546 31.6654 4.79362C31.432 4.94179 31.2434 5.15083 31.12 5.39838C31.0553 5.52773 31.0662 5.5924 31.1846 5.66785C31.8739 6.1098 32.5524 6.56253 33.2308 7.01525C33.317 7.06915 33.3816 7.13382 33.4677 7.01525C33.6561 6.80272 33.7811 6.54163 33.8287 6.26155C33.8763 5.98147 33.8445 5.69365 33.7369 5.43074C33.6332 5.18961 33.4645 4.98221 33.2495 4.83178C33.0345 4.68136 32.7819 4.59383 32.52 4.57915L32.4446 4.55757ZM23.5923 21.7179C23.5923 21.6317 23.5277 21.5995 23.4846 21.5671L21.74 20.4245C21.6 20.3383 21.557 20.4246 21.5247 20.5216C21.4924 20.6186 21.363 21.0821 21.2661 21.3624C21.1692 21.6427 21.2662 21.5672 21.3954 21.6211C21.6546 21.7229 21.9033 21.8491 22.1385 21.9982C22.3646 22.1276 22.4722 22.5158 22.7522 22.4403C23.0322 22.3649 23.1616 22.1062 23.3662 21.9337L23.5923 21.7179ZM30.3985 6.51945C30.3247 6.64392 30.2418 6.76263 30.1507 6.87499C29.9461 7.12291 29.9462 7.27386 30.2585 7.4571C30.7862 7.75892 31.3354 8.11481 31.7984 8.44897C32.2615 8.78312 32.3046 8.78294 32.6385 8.26554C32.7354 8.11463 32.7461 8.03938 32.5738 7.93159L30.5707 6.63788L30.3985 6.51945ZM21.88 23.2272C21.7723 23.1409 21.6754 23.0871 21.5892 23.0117C21.0292 22.5266 20.8893 22.5697 20.6846 23.2596C20.6784 23.2952 20.6784 23.3315 20.6846 23.3672C20.6589 23.4429 20.6587 23.5252 20.684 23.6011C20.7093 23.677 20.7587 23.7426 20.8246 23.7877C20.8908 23.8439 20.9747 23.8748 21.0615 23.8748C21.1483 23.8748 21.2323 23.8439 21.2984 23.7877L21.88 23.2272Z" fill="white" fill-opacity="0.5"/>
<path d="M11.3693 12.3832C10.9278 12.3832 10.6694 12.2107 10.6263 11.8981C10.5832 11.5855 10.8093 11.3268 11.197 11.2729L18.3693 10.3136L23.42 9.6452C23.8723 9.6452 24.1417 9.76371 24.1955 10.1194C24.2494 10.4751 23.9908 10.7124 23.56 10.7663L11.8001 12.3184L11.3693 12.3832Z" fill="white" fill-opacity="0.5"/>
<path d="M14.0728 6.86443C13.6743 6.86443 13.4158 6.68095 13.3835 6.35757C13.3776 6.28132 13.3873 6.2049 13.4122 6.13257C13.437 6.06023 13.4764 5.99358 13.5278 5.93704C13.5793 5.88049 13.6417 5.83509 13.7114 5.80361C13.781 5.77214 13.8563 5.75538 13.9327 5.75414L19.3174 5.02096L22.4512 4.61148C22.5946 4.60086 22.7385 4.60086 22.8819 4.61148C22.958 4.60095 23.0355 4.60629 23.1095 4.62701C23.1835 4.64773 23.2524 4.68348 23.312 4.73201C23.3716 4.78054 23.4207 4.84083 23.456 4.90912C23.4913 4.97741 23.5122 5.05214 23.5174 5.12886C23.5235 5.27801 23.4722 5.42389 23.374 5.53624C23.2758 5.64858 23.1382 5.71886 22.9897 5.73256L20.3404 6.08809L14.2559 6.88574L14.0728 6.86443Z" fill="white" fill-opacity="0.5"/>
<path d="M13.3611 27.6247C12.9304 27.6247 12.6826 27.4307 12.6503 27.1181C12.646 27.0407 12.6571 26.9634 12.6831 26.8904C12.709 26.8175 12.7492 26.7503 12.8014 26.6931C12.8535 26.6358 12.9166 26.5898 12.9869 26.5573C13.0571 26.5247 13.133 26.5066 13.2104 26.5039L17.4212 25.9433C17.5738 25.9147 17.7316 25.9471 17.8605 26.0338C17.9894 26.1205 18.0792 26.2545 18.1104 26.4067C18.1277 26.4824 18.1284 26.5608 18.1126 26.6367C18.0968 26.7127 18.0648 26.7843 18.0188 26.8468C17.9728 26.9092 17.9139 26.9611 17.846 26.9986C17.7782 27.0361 17.7031 27.0586 17.6258 27.0644C16.1828 27.2692 14.7396 27.4414 13.3611 27.6247Z" fill="white" fill-opacity="0.5"/>
<path d="M12.0257 17.5139C11.5519 17.5139 11.3258 17.3415 11.2935 17.0181C11.2612 16.6947 11.4549 16.4467 11.8426 16.3928L14.2012 16.0802C14.2764 16.0647 14.354 16.0649 14.4291 16.0807C14.5042 16.0965 14.5754 16.1278 14.638 16.1723C14.7006 16.2168 14.7534 16.2736 14.7931 16.3394C14.8328 16.4052 14.8586 16.4785 14.8688 16.5547C14.8827 16.6278 14.8816 16.7028 14.8656 16.7755C14.8495 16.8481 14.8189 16.9166 14.7756 16.9771C14.7323 17.0375 14.6773 17.0888 14.6137 17.1273C14.5501 17.1659 14.4793 17.1909 14.4057 17.2013C13.5872 17.2767 12.7581 17.3738 12.0257 17.5139Z" fill="white" fill-opacity="0.5"/>
</svg>
