<svg width="71" height="56" viewBox="0 0 71 56" fill="none" xmlns="http://www.w3.org/2000/svg">
<path d="M17.2151 21.9585C15.5921 23.9988 13.2943 25.3811 10.7426 25.8522C8.87734 26.2184 6.94914 26.0814 5.15334 25.455C3.35753 24.8285 1.75786 23.7351 0.515923 22.2851C0.261253 22.0605 0.0886524 21.7558 0.0260555 21.4206C-0.0365413 21.0853 0.0144188 20.7386 0.170646 20.436C0.315737 20.1369 0.54927 19.8905 0.839078 19.7308C1.12889 19.571 1.4607 19.506 1.78879 19.5444H7.3983C7.75327 19.5777 8.1098 19.4994 8.41886 19.3203C8.72792 19.1411 8.97445 18.8699 9.12442 18.5439C9.57751 17.6738 10.0738 16.8251 10.5701 15.955C10.7437 15.6864 10.8361 15.3733 10.8361 15.0527C10.8361 14.7322 10.7437 14.4185 10.5701 14.1499C10.0738 13.2799 9.57748 12.3881 9.10283 11.4963C8.95219 11.1817 8.7111 10.9199 8.41096 10.7454C8.11081 10.5708 7.76545 10.491 7.4199 10.517H1.89677C1.5424 10.5654 1.18202 10.499 0.867785 10.3269C0.553555 10.1548 0.301694 9.88608 0.149049 9.56005C0.0107164 9.22701 -0.0156188 8.85762 0.0739888 8.50804C0.163596 8.15846 0.364177 7.84814 0.645238 7.62437C1.68933 6.46149 2.96853 5.53729 4.39641 4.91441C5.82429 4.29153 7.36793 3.98436 8.92347 4.01322C10.479 4.04207 12.0103 4.40628 13.4145 5.08169C14.8186 5.7571 16.063 6.72785 17.064 7.92866L17.5388 8.49423C17.3504 7.5611 17.4219 6.59391 17.7456 5.69931C18.0693 4.8047 18.6325 4.01747 19.3727 3.42587C20.1162 2.87993 21.0052 2.57163 21.9245 2.54061C22.8438 2.50959 23.7511 2.75762 24.5292 3.25222C24.7498 2.54158 25.1378 1.89511 25.6601 1.36858C26.1823 0.842047 26.8233 0.450823 27.5282 0.22841C28.4254 -0.0769047 29.3971 -0.076073 30.2938 0.230534C31.1906 0.537141 31.9624 1.13256 32.4903 1.92512C32.6413 2.12089 32.6845 2.44738 33.0729 2.14285C33.6223 1.74563 34.253 1.47752 34.9186 1.35796C35.5842 1.23839 36.2677 1.27049 36.9194 1.45195C37.5711 1.63342 38.1744 1.95923 38.6848 2.40625C39.1952 2.85327 39.5998 3.40979 39.8692 4.03499C40.4233 3.62422 41.0646 3.34962 41.7425 3.23257C42.4204 3.11551 43.116 3.15963 43.7741 3.36108C44.7354 3.64287 45.5749 4.24209 46.1579 5.06257C46.7409 5.88305 47.0337 6.87685 46.9891 7.88511C46.9891 8.51592 46.9891 8.73369 47.7658 8.69019C49.4271 8.69019 51.0666 8.69019 52.7063 8.69019C52.9079 8.71102 53.1114 8.67544 53.2942 8.58716C53.4769 8.49889 53.6317 8.36138 53.7419 8.18994C54.7218 6.93794 55.9605 5.91605 57.3717 5.19534C58.7828 4.47462 60.3326 4.07229 61.9135 4.0164C63.4944 3.96051 65.0684 4.2521 66.5261 4.8714C67.9839 5.49069 69.2905 6.42287 70.355 7.60259C70.6314 7.83004 70.8302 8.13895 70.9231 8.48627C71.016 8.83358 70.9983 9.20155 70.8728 9.53828C70.728 9.88273 70.4731 10.1684 70.1485 10.3497C69.824 10.5311 69.4486 10.5976 69.0821 10.5388C67.3345 10.5388 65.5868 10.5388 63.8392 10.5388C63.415 10.4861 62.9853 10.5746 62.6153 10.7905C62.2454 11.0064 61.9556 11.3381 61.7897 11.7352C61.3797 12.5618 60.9051 13.3451 60.452 14.1282C60.273 14.3946 60.1773 14.7091 60.1773 15.0309C60.1773 15.3528 60.273 15.6668 60.452 15.9332C60.9698 16.825 61.4875 17.7386 61.9838 18.6522C62.1193 18.9461 62.3408 19.1915 62.6185 19.3548C62.8962 19.5181 63.2167 19.5919 63.5371 19.5661H69.125C69.4794 19.5178 69.8401 19.5842 70.1543 19.7562C70.4685 19.9283 70.7201 20.1971 70.8728 20.5231C71.0111 20.8561 71.0374 21.2255 70.9478 21.5751C70.8582 21.9247 70.6576 22.235 70.3766 22.4588C69.3375 23.6416 68.0552 24.5825 66.6191 25.2149C65.1829 25.8474 63.6272 26.1566 62.0604 26.1214C60.4936 26.0862 58.9533 25.7073 57.5465 25.011C56.1397 24.3147 54.9004 23.3175 53.9147 22.0892L53.5262 21.6325C53.5262 22.0022 53.3536 22.3067 53.2889 22.6112C52.5311 25.3095 50.7687 27.6083 48.3697 29.0279C47.5572 29.5827 46.8753 30.3107 46.372 31.1601C45.8688 32.0094 45.5565 32.9595 45.4571 33.9438C45.4571 34.4224 45.7807 34.314 45.9749 34.3793C46.5526 34.5844 47.0776 34.9162 47.5119 35.3516C47.9462 35.787 48.2789 36.3147 48.4856 36.8959C48.6922 37.4772 48.7676 38.0977 48.7065 38.7121C48.6455 39.3265 48.4493 39.9193 48.1324 40.4476C47.6116 41.3353 46.768 41.9832 45.7808 42.2532C45.3061 42.3837 45.1982 42.5797 45.1982 43.0583C45.1982 46.8648 45.1982 50.6714 45.1982 54.478C45.1982 55.6526 44.8747 56 43.7312 56H22.5874C21.4439 56 21.1417 55.6526 21.1417 54.478C21.1417 50.6932 21.1417 46.9084 21.1417 43.1018C21.1417 42.645 21.1419 42.3837 20.5378 42.2532C19.7425 42.0199 19.0371 41.5473 18.5165 40.8979C17.9958 40.2486 17.6845 39.4537 17.6249 38.6208C17.5509 37.7473 17.7588 36.8728 18.2175 36.128C18.6763 35.3833 19.3615 34.8079 20.1709 34.4876C20.7535 34.2701 20.7749 34.0092 20.5807 33.5307C19.8342 31.9208 19.1718 30.2726 18.596 28.5929C17.9915 26.6337 17.5584 24.6248 17.3015 22.5894C17.3231 22.3936 17.2799 22.2413 17.2151 21.9585ZM38.0137 21.5018H37.8841H19.912C19.4158 21.5018 19.4375 21.7411 19.4806 22.0892C19.8188 24.9384 20.5448 27.7273 21.6382 30.3768C22.1748 31.4012 22.6015 32.4803 22.911 33.596C22.911 34.205 23.2995 34.2704 23.7957 34.2704C29.9878 34.2704 36.1583 34.2704 42.3504 34.2704C43.0408 34.2704 43.2349 34.0526 43.3427 33.4C43.5043 32.1001 43.9548 30.8541 44.6609 29.7544C45.367 28.6546 46.3104 27.7295 47.4205 27.0486C48.3858 26.4961 49.2236 25.7427 49.8783 24.8389C50.5329 23.9352 50.9894 22.9018 51.2178 21.8066C51.5771 19.3591 51.6784 16.8797 51.5198 14.4107C51.5198 13.8016 51.0666 13.6061 50.5056 13.6061H37.8409C37.0642 13.6061 36.827 13.8671 36.827 14.6284C36.8097 15.992 37.3288 17.3068 38.271 18.2852C39.2132 19.2637 40.5018 19.8257 41.8542 19.8486C43.386 19.8486 44.8963 19.8486 46.4281 19.8486C47.3127 19.8486 47.8519 20.3055 47.8303 21.0016C47.8087 21.6976 47.334 22.0892 46.471 22.0892C45.0039 22.0892 43.5584 22.0892 42.156 22.0892C41.4413 22.0614 40.742 22.3017 40.1928 22.7636C39.3636 23.3966 38.7705 24.2932 38.5099 25.3084C38.2645 26.248 38.3022 27.24 38.6179 28.158C38.6758 28.3018 38.7038 28.4559 38.7001 28.611C38.6963 28.7661 38.661 28.919 38.5963 29.0597C38.5315 29.2005 38.4388 29.3263 38.3237 29.4294C38.2086 29.5324 38.0736 29.6105 37.9273 29.6588C37.7801 29.7081 37.6242 29.7255 37.4699 29.7097C37.3155 29.694 37.1661 29.6455 37.0316 29.5674C36.8971 29.4894 36.7805 29.3835 36.6895 29.2568C36.5985 29.1301 36.5349 28.9856 36.5033 28.8325C36.3142 28.2998 36.1982 27.7436 36.1583 27.1793C36.0404 26.1539 36.1452 25.1151 36.4656 24.1348C36.786 23.1544 37.3144 22.2557 38.0137 21.5018ZM33.1809 53.7377C36.2446 53.7377 39.3299 53.7377 42.3936 53.7377C42.8898 53.7377 43.0406 53.7387 43.0406 53.1079C43.0406 49.7799 43.0406 46.4293 43.0406 43.0795C43.0406 42.4922 42.8682 42.4274 42.3504 42.4274H24.0759C23.5581 42.4274 23.3856 42.4275 23.3856 43.1018C23.3856 46.4081 23.3856 49.7358 23.3856 53.042C23.3856 53.6728 23.6013 53.7595 24.1191 53.7377C27.1397 53.716 30.1603 53.7377 33.1809 53.7377ZM36.0935 19.153C35.3384 17.8479 35.3383 17.8695 34.1517 17.4127C33.5662 17.2243 33.0388 16.8874 32.6199 16.434C32.3394 16.1295 32.1882 16.1947 31.9293 16.434C31.1218 17.2376 30.0329 17.6878 28.8982 17.6878C27.7635 17.6878 26.6744 17.2376 25.8668 16.434C25.5001 16.1077 25.349 16.1512 25.0038 16.434C24.3772 17.0292 23.5882 17.4213 22.7385 17.5609C21.8888 17.7004 21.0173 17.5807 20.2357 17.2168C19.43 16.8882 18.7414 16.3219 18.2602 15.5923C17.779 14.8626 17.5276 14.0038 17.5388 13.1277C17.5388 12.5186 17.5388 11.8876 17.5388 11.2785C17.5388 10.6695 17.5387 10.8001 17.1719 10.8436C16.8052 10.8871 16.2443 10.4953 15.9423 10.0385C14.9713 8.58251 13.5862 7.45641 11.9691 6.80814C10.3519 6.15987 8.57811 6.0199 6.88052 6.40614C5.55286 6.67572 4.31839 7.29075 3.29921 8.18994H7.61426C8.30713 8.16097 8.99378 8.33162 9.59375 8.68222C10.1937 9.03282 10.682 9.54863 11.0015 10.1692C11.5624 11.148 12.1234 12.1271 12.6628 13.1277C12.9653 13.6687 13.1242 14.2792 13.1242 14.9003C13.1242 15.5214 12.9653 16.1319 12.6628 16.673C12.1018 17.7606 11.4976 18.8481 10.8935 19.8486C10.5664 20.4067 10.0987 20.8677 9.53792 21.1848C8.97714 21.5018 8.34326 21.6638 7.70039 21.6542H3.94631C3.75214 21.6542 3.51475 21.5455 3.34214 21.6542C4.26613 22.4048 5.33384 22.9554 6.47835 23.2713C7.62286 23.5872 8.8197 23.6615 9.99407 23.4901C11.1684 23.3186 12.295 22.9048 13.3036 22.2745C14.3122 21.6442 15.1811 20.8109 15.8559 19.8269C16.0408 19.5256 16.3024 19.2803 16.6136 19.1158C16.9248 18.9513 17.274 18.8737 17.6249 18.8917H36.1151L36.0935 19.153ZM67.7874 21.7849H63.4723C62.806 21.804 62.1473 21.6371 61.5687 21.3032C60.9901 20.9693 60.5143 20.4812 60.1931 19.8922C59.6106 18.8916 59.0496 17.8695 58.4886 16.8471C58.17 16.2997 58.0019 15.6763 58.0019 15.0416C58.0019 14.4068 58.17 13.7834 58.4886 13.236C59.0496 12.1919 59.632 11.1697 60.2361 10.1474C60.519 9.63792 60.924 9.20775 61.4138 8.89624C61.9037 8.58472 62.463 8.40159 63.0409 8.36359C63.5803 8.36359 64.1197 8.36359 64.6591 8.36359H67.8954L67.2264 7.84157C65.3502 6.5362 63.0379 6.03258 60.7944 6.44012C58.5509 6.84766 56.5586 8.13326 55.2523 10.0168C55.0752 10.3088 54.8236 10.5475 54.5238 10.7082C54.2241 10.8689 53.887 10.946 53.5478 10.9307C51.606 10.9307 49.6644 10.9307 47.7442 10.9307C47.5068 10.9307 47.2694 10.9303 47.0536 11.0608C47.2909 11.3436 47.55 11.235 47.7658 11.235C48.6719 11.235 49.5781 11.235 50.4843 11.235C50.9342 11.1912 51.388 11.2483 51.8135 11.4023C52.239 11.5562 52.6255 11.8033 52.9452 12.1256C53.2648 12.4478 53.5097 12.8373 53.6623 13.2663C53.815 13.6952 53.8718 14.153 53.8283 14.6066C53.8283 15.9335 53.8283 17.2823 53.8283 18.6092C53.8283 18.8049 53.6988 19.1312 54.044 19.153C54.7344 19.153 55.0148 19.7403 55.36 20.2188C56.0547 21.1703 56.9344 21.969 57.9453 22.5666C58.9562 23.1641 60.0772 23.548 61.24 23.6945C62.4028 23.8411 63.5829 23.7472 64.7086 23.4189C65.8343 23.0906 66.8818 22.5347 67.7874 21.7849ZM33.267 40.2086H44.7668C45.2355 40.1989 45.6837 40.0121 46.023 39.6861C46.3624 39.36 46.5684 38.9181 46.6006 38.4466C46.6341 37.9725 46.4914 37.503 46.2003 37.1291C45.9092 36.7551 45.4905 36.5037 45.0257 36.4238C44.7312 36.4016 44.4355 36.4016 44.141 36.4238H23.817C23.1482 36.4238 22.5011 36.4238 21.8323 36.4238C21.5632 36.4275 21.2981 36.4885 21.0543 36.6033C20.8105 36.7181 20.5934 36.8841 20.418 37.0898C20.2425 37.2955 20.1124 37.5364 20.0364 37.7966C19.9603 38.0568 19.9401 38.3298 19.9768 38.5985C20.0655 39.0649 20.3211 39.4823 20.695 39.7711C21.069 40.0598 21.5351 40.2003 22.0048 40.1651L33.267 40.2086ZM31.1095 8.92916C31.1095 7.53704 31.1095 6.16686 31.1095 4.77474C31.1336 4.45395 31.0909 4.13157 30.9841 3.82841C30.8773 3.52525 30.709 3.24786 30.4895 3.01431C30.27 2.78075 30.0044 2.596 29.7099 2.4721C29.4154 2.3482 29.0985 2.28827 28.7794 2.29526C28.4668 2.30048 28.1585 2.36967 27.8732 2.49866C27.5879 2.62764 27.3315 2.81322 27.1197 3.04511C26.9078 3.27699 26.7447 3.55025 26.6406 3.84753C26.5365 4.1448 26.4934 4.46017 26.5139 4.77474C26.5139 7.50098 26.5139 10.22 26.5139 12.9317C26.4903 13.2527 26.5324 13.5752 26.6375 13.8791C26.7426 14.183 26.9085 14.4619 27.125 14.6985C27.3414 14.9351 27.6038 15.1244 27.8958 15.2545C28.1879 15.3846 28.5034 15.4526 28.8226 15.4547C29.141 15.4529 29.4556 15.3849 29.7465 15.2545C30.0375 15.1242 30.2987 14.9344 30.5135 14.6974C30.7283 14.4605 30.892 14.1814 30.9946 13.8775C31.0972 13.5736 31.1363 13.2516 31.1095 12.9317C31.1742 11.6048 31.1527 10.256 31.1527 8.92916H31.1095ZM19.6963 10.1256V13.1494C19.702 13.7592 19.9447 14.3422 20.3724 14.7734C20.8001 15.2046 21.3784 15.4491 21.9832 15.4547C22.2884 15.4738 22.5942 15.4274 22.8802 15.3182C23.1663 15.2091 23.4262 15.0403 23.6424 14.8222C23.8587 14.6042 24.0264 14.3422 24.1347 14.0538C24.2429 13.7654 24.2892 13.4572 24.2703 13.1494C24.2703 11.1483 24.2703 9.14706 24.2703 7.14589C24.291 6.8477 24.2506 6.54821 24.1515 6.26647C24.0524 5.98473 23.8968 5.72652 23.6943 5.50813C23.4918 5.28973 23.2469 5.11596 22.9748 4.99725C22.7027 4.87855 22.4093 4.81756 22.1128 4.81829C21.807 4.81246 21.5031 4.86829 21.2192 4.98292C20.9353 5.09754 20.6771 5.26882 20.4599 5.48582C20.2426 5.70282 20.0708 5.96114 19.9545 6.24629C19.8381 6.53144 19.7795 6.83758 19.7825 7.14589C19.7177 8.14648 19.7395 9.12503 19.7395 10.1256H19.6963ZM34.5401 15.1504C34.5401 12.4967 35.1441 11.7136 37.6468 11.2568C37.9273 11.2568 37.9489 11.0829 37.9489 10.8654C37.9489 9.14698 37.9489 7.45012 37.9489 5.75347C37.9053 5.16106 37.6407 4.60746 37.2083 4.20386C36.776 3.80027 36.2081 3.57665 35.6189 3.57828C35.037 3.60625 34.4881 3.85925 34.0863 4.28458C33.6846 4.70991 33.4607 5.27498 33.4614 5.86234C33.4614 8.3203 33.4614 10.7563 33.4614 13.2142C33.4564 13.6092 33.5582 13.9985 33.7558 14.3395C33.9535 14.6806 34.2396 14.9609 34.5833 15.1504H34.5401ZM42.4149 11.235H44.249C44.5942 11.235 44.7668 11.2351 44.7452 10.7783C44.7452 9.73419 44.7452 8.60324 44.7452 7.66791C44.7022 7.08294 44.4436 6.53516 44.0204 6.13264C43.5972 5.73012 43.0398 5.50198 42.4581 5.49273C41.8718 5.48643 41.3059 5.70947 40.8794 6.11512C40.4529 6.52077 40.1991 7.07744 40.1712 7.66791C40.1712 8.712 40.1712 9.84295 40.1712 10.7783C40.1712 11.1916 40.3006 11.2785 40.6674 11.2785C41.0342 11.2785 41.8755 11.235 42.4581 11.235H42.4149Z" fill="white" fill-opacity="0.5"/>
</svg>
