<svg width="34" height="35" viewBox="0 0 34 35" fill="none" xmlns="http://www.w3.org/2000/svg">
<path d="M29.7372 34.9302H7.60719C7.60719 34.9302 7.60725 34.8701 7.54725 34.8601C6.65797 34.7134 5.84084 34.2805 5.21998 33.6272C4.59912 32.9738 4.20837 32.1358 4.10719 31.2402C4.10719 31.0802 4.00719 31.05 3.85719 31.05C3.70719 31.05 3.30724 31.05 3.03724 31.05C2.29458 31.0147 1.58776 30.7204 1.03968 30.218C0.491606 29.7156 0.136934 29.0368 0.0372395 28.3C-0.0553381 27.5916 0.0911096 26.8727 0.453377 26.2568C0.815645 25.641 1.37302 25.1634 2.03724 24.9001C2.60013 24.7115 3.19569 24.64 3.78724 24.6902C3.95724 24.6902 4.04725 24.6902 4.04725 24.4602C4.04725 24.0202 4.04717 24.0203 3.58717 24.0203H3.14722C2.51603 24.013 1.901 23.8192 1.37965 23.4634C0.858291 23.1075 0.453843 22.6054 0.217171 22.0203C-0.0110043 21.4216 -0.0548164 20.7683 0.0913166 20.1445C0.23745 19.5208 0.566911 18.9552 1.03724 18.5203C1.40124 18.1988 1.82894 17.9577 2.29249 17.813C2.75604 17.6682 3.24494 17.623 3.72718 17.6802C3.96718 17.6802 4.04714 17.6301 4.05714 17.3701C4.06714 17.1101 3.96713 16.9802 3.67713 17.0102C3.49411 17.0252 3.31023 17.0252 3.12721 17.0102C2.35355 16.9913 1.61273 16.6932 1.04127 16.1714C0.469804 15.6495 0.106189 14.9389 0.0172199 14.1702C-0.063003 13.3985 0.138854 12.624 0.585579 11.9897C1.0323 11.3555 1.6936 10.9046 2.44715 10.7202C2.89517 10.6352 3.35183 10.6049 3.80714 10.6301C3.95714 10.6301 4.04725 10.6302 4.04725 10.4202C4.04725 9.98016 4.04721 9.98021 3.62721 9.98021H3.1172C2.52708 9.96861 1.95203 9.79187 1.45716 9.4702C0.962288 9.14854 0.56732 8.69473 0.317147 8.16015C0.127147 7.78015 0.187191 7.48008 0.487191 7.34008C0.787191 7.20008 1.04719 7.3402 1.23719 7.7102C1.41038 8.09237 1.69254 8.41481 2.04835 8.6372C2.40416 8.85958 2.81777 8.97199 3.23719 8.96019H5.66724C6.21554 8.96207 6.7443 8.75713 7.14832 8.38646C7.55235 8.0158 7.80191 7.50662 7.84718 6.9602C7.89718 6.5702 7.72723 6.30025 7.40723 6.27025C7.08723 6.24025 6.88717 6.41006 6.83717 6.82006C6.81908 7.12691 6.68094 7.41451 6.45264 7.62035C6.22435 7.82619 5.92428 7.93382 5.6172 7.92016H3.26722C3.11288 7.92688 2.95878 7.90253 2.8141 7.84838C2.66941 7.79423 2.53706 7.71137 2.42506 7.60497C2.31306 7.49857 2.22373 7.37071 2.16224 7.22899C2.10075 7.08728 2.06834 6.93474 2.06715 6.78026C2.06557 6.62322 2.09621 6.46751 2.15711 6.32274C2.21801 6.17798 2.3079 6.04715 2.42127 5.93847C2.53464 5.82978 2.66909 5.7454 2.81629 5.69066C2.9635 5.63592 3.12039 5.61191 3.27723 5.62011H3.85719C3.99719 5.62011 4.08725 5.62018 4.04725 5.44018C4.00725 5.26018 4.23724 4.71011 3.91724 4.62011C3.39489 4.48614 2.84224 4.53767 2.35352 4.76561C1.86481 4.99356 1.47024 5.38381 1.23719 5.87011C1.05719 6.24011 0.79721 6.3602 0.50721 6.2202C0.21721 6.0802 0.137137 5.80017 0.307137 5.43017C0.559111 4.89141 0.953268 4.4315 1.44715 4.10009C2.14159 3.67415 2.95672 3.48793 3.76722 3.57006C3.99722 3.57006 4.11713 3.57026 4.17713 3.28026C4.37974 2.34388 4.89938 1.50604 5.6482 0.908437C6.39702 0.310836 7.32924 -0.00992044 8.28724 0.000233892H29.1871C30.2871 0.00546867 31.3407 0.444076 32.1194 1.22094C32.8981 1.9978 33.3393 3.05019 33.3472 4.15014C33.3472 13.0368 33.3472 21.9267 33.3472 30.8201C33.3379 31.6617 33.0753 32.4811 32.5938 33.1714C32.1122 33.8617 31.4339 34.3909 30.6472 34.6902C30.3472 34.7602 30.0372 34.8302 29.7372 34.9302ZM32.3372 17.4402V4.44018C32.3574 4.21396 32.3574 3.98646 32.3372 3.76024C32.2307 2.97939 31.8363 2.26653 31.2313 1.76146C30.6264 1.2564 29.8545 0.995604 29.0671 1.03026C22.2005 1.03026 15.3272 1.03026 8.44715 1.03026H8.13721C7.42121 1.06753 6.73909 1.34712 6.20301 1.82323C5.66693 2.29934 5.30869 2.94354 5.18714 3.65014C5.10718 4.68144 5.08721 5.71661 5.12721 6.75023V6.87011C5.31668 6.89007 5.50768 6.89007 5.69715 6.87011C5.86715 6.87011 5.81717 6.67005 5.83717 6.56005C5.881 6.20731 6.0471 5.88116 6.30653 5.63817C6.56596 5.39518 6.90236 5.25089 7.25721 5.23021C7.6173 5.20234 7.97538 5.30532 8.26563 5.52025C8.55589 5.73519 8.75879 6.04757 8.83717 6.40014C8.90881 6.79937 8.89223 7.20941 8.78858 7.60155C8.68493 7.9937 8.49675 8.35846 8.23719 8.67016C7.91628 9.10985 7.48695 9.45877 6.99097 9.68309C6.495 9.90742 5.94934 9.99954 5.40723 9.95018C5.13723 9.95018 5.07716 10.0203 5.07716 10.2903C5.07716 11.3903 5.07716 12.4901 5.07716 13.6001C5.07716 13.7201 4.96722 13.9602 5.26722 13.9202C5.56722 13.8802 5.79717 14.0801 5.83717 13.6201C5.86835 13.265 6.02761 12.9333 6.28516 12.6868C6.54271 12.4402 6.88102 12.2959 7.23719 12.2803C7.60337 12.2481 7.96861 12.3514 8.26356 12.5708C8.55851 12.7902 8.76261 13.1103 8.83717 13.4702C8.95721 14.1365 8.81765 14.8234 8.44715 15.3901C8.1554 15.9184 7.7168 16.3508 7.18433 16.6348C6.65186 16.9187 6.04837 17.0422 5.44715 16.9902C5.09715 16.9902 5.01723 17.0801 5.02723 17.4101C5.02723 18.4901 5.02723 19.5701 5.02723 20.6501C5.02723 20.8001 4.95719 21.0102 5.23719 20.9602C5.51719 20.9102 5.74723 21.1202 5.77723 20.6702C5.79585 20.4709 5.85407 20.2774 5.94862 20.1011C6.04316 19.9247 6.17203 19.7691 6.32764 19.6433C6.48326 19.5175 6.66248 19.4241 6.85474 19.3686C7.04701 19.3132 7.24843 19.2965 7.44715 19.3201C7.83424 19.3624 8.19153 19.5482 8.44874 19.8406C8.70594 20.1329 8.84447 20.5108 8.83717 20.9001C8.82088 21.5665 8.60016 22.2116 8.20484 22.7483C7.80952 23.2849 7.25875 23.687 6.62721 23.9001C6.19937 24.0266 5.75199 24.0742 5.30714 24.0403C5.09714 24.0403 5.01722 24.04 5.01722 24.31C5.01722 25.46 5.01722 26.6102 5.01722 27.7602C5.01722 27.9002 5.01716 28.0702 5.20716 28.0102C5.39716 27.9502 5.70721 28.1903 5.75721 27.7703C5.77333 27.5653 5.83059 27.3656 5.92555 27.1833C6.0205 27.001 6.15115 26.8396 6.30982 26.709C6.46849 26.5783 6.65188 26.4811 6.84901 26.4228C7.04613 26.3646 7.25296 26.3466 7.45716 26.3701C7.66377 26.3958 7.86321 26.4627 8.04359 26.5666C8.22397 26.6706 8.38164 26.8097 8.50745 26.9756C8.63327 27.1415 8.72466 27.3307 8.77613 27.5325C8.8276 27.7342 8.83809 27.9443 8.80714 28.1501C8.74304 28.9823 8.35533 29.7563 7.72718 30.3059C7.09903 30.8555 6.2805 31.137 5.44715 31.0901C5.00715 31.0901 5.0072 31.0903 5.1172 31.5203C5.29032 32.2343 5.70613 32.8659 6.29347 33.3074C6.8808 33.7488 7.60316 33.9725 8.33717 33.9402H28.8572C29.3134 33.9729 29.7713 33.9071 30.1998 33.7473C30.6284 33.5875 31.0177 33.3373 31.3411 33.0139C31.6645 32.6905 31.9146 32.3014 32.0743 31.8728C32.2341 31.4442 32.2999 30.9865 32.2672 30.5303L32.3372 17.4402ZM4.33717 15.9402C4.83717 15.9402 5.24723 15.9402 5.65723 15.9402C6.20963 15.9495 6.74478 15.7478 7.15357 15.3762C7.56237 15.0046 7.81398 14.491 7.85719 13.9402C7.90719 13.5502 7.74714 13.2802 7.43714 13.2302C7.12714 13.1802 6.89718 13.38 6.84718 13.81C6.82413 14.1089 6.68636 14.3872 6.46265 14.5867C6.23895 14.7861 5.94673 14.8913 5.64722 14.8801H3.25721C3.10666 14.8855 2.95656 14.8609 2.81556 14.8079C2.67456 14.7548 2.5454 14.6745 2.43568 14.5713C2.32595 14.4681 2.23782 14.344 2.17628 14.2065C2.11474 14.069 2.08103 13.9208 2.07716 13.7703C2.07182 13.6189 2.09675 13.4678 2.1504 13.3262C2.20404 13.1845 2.28538 13.0552 2.38966 12.9453C2.49393 12.8354 2.61904 12.7475 2.7577 12.6865C2.89635 12.6256 3.04571 12.5926 3.19715 12.5901C3.39715 12.5901 3.60714 12.5901 3.80714 12.5901C4.00714 12.5901 4.06715 12.5901 4.06715 12.3501C4.06715 11.5401 4.06723 11.54 3.27723 11.56H3.00721C2.48978 11.5992 2.00353 11.8225 1.6366 12.1894C1.26968 12.5564 1.04638 13.0426 1.00721 13.56C0.96942 14.0813 1.12186 14.5987 1.43629 15.0161C1.75072 15.4335 2.20577 15.7226 2.71717 15.8301C3.24971 15.9126 3.78833 15.9495 4.32716 15.9402H4.33717ZM4.45716 22.9402H5.65723C6.20236 22.9528 6.73209 22.7589 7.14014 22.3972C7.5482 22.0355 7.80432 21.5329 7.85719 20.9902C7.90719 20.5802 7.73723 20.3103 7.40723 20.2703C7.07723 20.2303 6.89718 20.4301 6.84718 20.8501C6.82992 21.1307 6.70864 21.3948 6.50709 21.5908C6.30553 21.7868 6.0382 21.9007 5.75721 21.9101C4.88721 21.9101 4.02723 21.9101 3.15723 21.9101C2.87061 21.8999 2.59877 21.7801 2.39784 21.5754C2.1969 21.3708 2.0821 21.0968 2.07716 20.81C2.06354 20.5172 2.16633 20.231 2.36305 20.0137C2.55976 19.7963 2.83448 19.6657 3.12721 19.6501C3.37698 19.6351 3.62743 19.6351 3.87721 19.6501C3.99721 19.6501 4.04715 19.6502 4.06715 19.4802C4.16715 18.6402 4.13715 18.6101 3.31715 18.6201H3.10719C2.54746 18.6587 2.02505 18.9147 1.65138 19.3332C1.2777 19.7518 1.08237 20.2996 1.10719 20.8601C1.1253 21.4164 1.35847 21.9441 1.75758 22.332C2.15668 22.7199 2.69064 22.9379 3.2472 22.9402C3.6072 22.9902 4.02715 22.9802 4.44715 22.9802L4.45716 22.9402ZM4.45716 29.9402C4.87716 29.9402 5.29718 29.9402 5.72718 29.9402C6.26062 29.9407 6.77541 29.7438 7.17237 29.3874C7.56933 29.0311 7.8204 28.5406 7.87721 28.0102C7.92721 27.6102 7.76715 27.3303 7.44715 27.2803C7.12715 27.2303 6.9272 27.4401 6.8672 27.8601C6.84948 28.1431 6.72506 28.4089 6.51905 28.6038C6.31304 28.7986 6.04078 28.9082 5.75721 28.9101C4.89721 28.9101 4.02724 28.9101 3.16724 28.9101C3.0219 28.9063 2.87875 28.8737 2.7461 28.8142C2.61346 28.7547 2.49392 28.6695 2.39442 28.5635C2.29492 28.4575 2.2174 28.3327 2.16639 28.1965C2.11538 28.0604 2.09184 27.9155 2.09718 27.7703C2.09966 27.4774 2.21571 27.197 2.42091 26.988C2.62611 26.7791 2.90441 26.6579 3.19715 26.6501H3.90723C4.01723 26.6501 4.06717 26.6502 4.08717 26.5102C4.20717 25.7102 4.08719 25.6301 3.35719 25.6301H3.18714C2.62904 25.6404 2.0969 25.8675 1.70313 26.2632C1.30936 26.6588 1.08485 27.1921 1.07716 27.7502C1.06043 28.3046 1.2596 28.8437 1.6327 29.2541C2.0058 29.6645 2.52368 29.9142 3.07716 29.9502C3.53716 30.0402 3.98713 30.0203 4.42713 30.0203L4.45716 29.9402ZM3.62721 6.79027C3.76721 6.69027 4.05714 6.93014 4.05714 6.65014C4.05714 6.37014 3.77721 6.54026 3.62721 6.53026C3.47721 6.52026 3.15723 6.43012 3.15723 6.63012C3.15723 6.83012 3.43718 6.78011 3.59718 6.87011L3.62721 6.79027ZM3.62721 13.7903H3.89722C3.97722 13.7903 4.08716 13.7902 4.07716 13.6702C4.06716 13.5502 3.99723 13.55 3.90723 13.55H3.33717C3.24717 13.55 3.12721 13.5502 3.12721 13.6702C3.12721 13.7902 3.25718 13.7903 3.34718 13.7903C3.43201 13.8282 3.51881 13.8614 3.60719 13.8901L3.62721 13.7903ZM3.62721 20.7903H3.96717C4.04717 20.7903 4.07715 20.7401 4.06715 20.6601C4.06875 20.6466 4.06733 20.633 4.06287 20.6201C4.05842 20.6072 4.05114 20.5956 4.04151 20.5859C4.03189 20.5763 4.0202 20.5689 4.00733 20.5644C3.99447 20.56 3.98069 20.5584 3.96717 20.56H3.22718C3.21323 20.5586 3.19911 20.5603 3.1858 20.5647C3.17249 20.5691 3.16028 20.5763 3.14991 20.5857C3.13954 20.5951 3.13126 20.6065 3.12562 20.6194C3.11998 20.6322 3.11713 20.6461 3.1172 20.6601C3.1172 20.7501 3.17721 20.7803 3.25721 20.7803L3.62721 20.7903ZM3.62721 27.7903H3.95716C4.03716 27.7903 4.11721 27.7902 4.12721 27.6802C4.13721 27.5702 4.05717 27.56 3.96717 27.56C3.86742 27.55 3.76699 27.55 3.66724 27.56C3.49724 27.56 3.19715 27.4302 3.19715 27.6802C3.19715 27.9302 3.42714 27.9302 3.55714 27.9802L3.62721 27.7903Z" fill="white" fill-opacity="0.5"/>
<path d="M19.3773 28.0001H11.1172C10.5672 28.0001 10.3272 27.8401 10.3372 27.4701C10.3472 27.1001 10.5772 26.9701 11.1072 26.9701H27.6673C27.7804 26.9602 27.8941 26.9602 28.0073 26.9701C28.1275 26.9827 28.2385 27.0399 28.3182 27.1308C28.3979 27.2216 28.4404 27.3393 28.4372 27.4601C28.4456 27.5816 28.4067 27.7015 28.3283 27.7948C28.25 27.8881 28.1384 27.9474 28.0173 27.9601C27.8941 27.97 27.7704 27.97 27.6473 27.9601L19.3773 28.0001Z" fill="white" fill-opacity="0.5"/>
<path d="M19.3769 17.7401H11.1469C11.0204 17.7501 10.8933 17.7501 10.7669 17.7401C10.6519 17.7326 10.5438 17.6821 10.4641 17.5988C10.3845 17.5154 10.3391 17.4054 10.3368 17.2902C10.3205 17.177 10.3461 17.0617 10.4087 16.9659C10.4713 16.8702 10.5666 16.8006 10.6768 16.7701C10.8123 16.7449 10.9513 16.7449 11.0868 16.7701H27.6768C27.8094 16.7504 27.9442 16.7504 28.0768 16.7701C28.19 16.7943 28.2899 16.8602 28.3566 16.9547C28.4233 17.0492 28.4519 17.1654 28.4368 17.2802C28.4347 17.3964 28.3896 17.5077 28.3102 17.5927C28.2308 17.6776 28.1228 17.7302 28.0069 17.7401C27.8837 17.75 27.76 17.75 27.6369 17.7401H19.3769Z" fill="white" fill-opacity="0.5"/>
<path d="M19.417 19.2803H27.7069C27.8328 19.2601 27.9611 19.2601 28.0869 19.2803C28.1924 19.3098 28.2847 19.3742 28.3484 19.4634C28.4121 19.5525 28.4432 19.6609 28.4369 19.7703C28.4389 19.886 28.3998 19.9987 28.3265 20.0884C28.2533 20.1781 28.1508 20.239 28.037 20.2603C27.9141 20.2757 27.7898 20.2757 27.667 20.2603H10.9369C10.5669 20.2603 10.3369 20.0602 10.3369 19.7502C10.3369 19.4402 10.5569 19.2302 10.9469 19.2302L19.417 19.2803Z" fill="white" fill-opacity="0.5"/>
<path d="M19.4173 24.4202H27.9472C28.0807 24.4254 28.2069 24.4828 28.2985 24.5801C28.3901 24.6773 28.4399 24.8066 28.4372 24.9402C28.4372 25.0728 28.3846 25.1999 28.2908 25.2937C28.197 25.3875 28.0698 25.4402 27.9372 25.4402H11.0772C10.9644 25.4552 10.8501 25.4552 10.7372 25.4402C10.617 25.4205 10.5088 25.3558 10.4345 25.2593C10.3602 25.1627 10.3254 25.0414 10.3372 24.9202C10.336 24.8041 10.3768 24.6915 10.4522 24.6033C10.5276 24.515 10.6324 24.4571 10.7472 24.4402C10.8604 24.4302 10.9741 24.4302 11.0872 24.4402L19.4173 24.4202Z" fill="white" fill-opacity="0.5"/>
<path d="M16.8872 22.8701H11.1272C11.0007 22.8803 10.8736 22.8803 10.7471 22.8701C10.6313 22.8599 10.5239 22.8054 10.4475 22.7178C10.371 22.6302 10.3315 22.5163 10.3371 22.4001C10.3256 22.28 10.3607 22.1601 10.4351 22.0652C10.5096 21.9702 10.6177 21.9076 10.7371 21.8901C10.85 21.8749 10.9643 21.8749 11.0771 21.8901H22.7371C22.863 21.87 22.9913 21.87 23.1171 21.8901C23.2295 21.9121 23.3292 21.976 23.3961 22.0688C23.463 22.1617 23.492 22.2766 23.4771 22.3901C23.4809 22.5 23.4444 22.6074 23.3743 22.6921C23.3043 22.7769 23.2057 22.8331 23.0971 22.8501C22.9609 22.8654 22.8233 22.8654 22.6871 22.8501L16.8872 22.8701Z" fill="white" fill-opacity="0.5"/>
<path d="M10.1766 11.0002C10.1166 11.3602 10.0467 11.73 9.97669 12.1C9.97567 12.283 9.90407 12.4585 9.77674 12.59C9.70663 12.6654 9.61278 12.7146 9.51087 12.7292C9.40896 12.7437 9.3051 12.7228 9.21668 12.6701C9.112 12.6241 9.02673 12.5429 8.97559 12.4406C8.92446 12.3383 8.91065 12.2214 8.93665 12.11L9.41676 9.46011C9.41676 9.27011 9.47673 9.08004 9.51673 8.89004C9.53119 8.75288 9.59492 8.62567 9.69605 8.53189C9.79719 8.43811 9.92879 8.38411 10.0667 8.38003C10.2054 8.36939 10.3433 8.409 10.4553 8.49161C10.5673 8.57422 10.6459 8.69428 10.6766 8.82999C10.8366 9.38999 11.0067 9.95 11.1967 10.59L11.6766 8.92007C11.7966 8.54007 12.0167 8.34003 12.3167 8.38003C12.6167 8.42003 12.8067 8.64012 12.8767 8.97012C13.0567 9.97012 13.2667 10.9701 13.4567 11.9701C13.5267 12.3501 13.3767 12.6301 13.0667 12.6801C12.7567 12.7301 12.5267 12.5401 12.4467 12.1501C12.382 11.7518 12.2817 11.3603 12.1467 10.9801L11.8767 11.9201C11.8767 12.0401 11.8067 12.1602 11.7667 12.2802C11.739 12.4044 11.669 12.515 11.5687 12.5934C11.4684 12.6718 11.344 12.7132 11.2167 12.7101C11.0844 12.7205 10.9529 12.6827 10.8463 12.6037C10.7397 12.5246 10.6653 12.4098 10.6367 12.2802C10.4967 11.8402 10.3667 11.3901 10.2367 10.9501L10.1766 11.0002Z" fill="white" fill-opacity="0.5"/>
<path d="M18.8766 10.6602V12.1502C18.8766 12.5302 18.6866 12.7503 18.3766 12.7503C18.0666 12.7503 17.8566 12.5302 17.8566 12.1602C17.8566 11.1002 17.8566 10.0303 17.8566 8.9603C17.8431 8.83823 17.8741 8.71539 17.9439 8.61435C18.0137 8.51331 18.1177 8.44081 18.2366 8.41025C18.35 8.37357 18.4728 8.37857 18.5828 8.42441C18.6928 8.47024 18.7828 8.55391 18.8366 8.66025C19.2666 9.29025 19.6966 9.91019 20.1866 10.6002C20.1866 9.99019 20.1866 9.47028 20.1866 8.94028C20.1781 8.86292 20.1876 8.78469 20.214 8.71152C20.2405 8.63835 20.2834 8.57221 20.3394 8.51816C20.3954 8.46411 20.463 8.42364 20.537 8.39975C20.6111 8.37586 20.6896 8.36908 20.7666 8.38022C20.8931 8.39291 21.0096 8.45434 21.0917 8.55136C21.1738 8.64838 21.215 8.77342 21.2066 8.90024C21.2066 9.96024 21.2066 11.0202 21.2066 12.0802C21.2228 12.2182 21.1881 12.3574 21.1089 12.4715C21.0297 12.5857 20.9116 12.6671 20.7767 12.7003C20.6492 12.7313 20.5148 12.7175 20.3964 12.661C20.278 12.6045 20.1827 12.5088 20.1266 12.3902C19.7266 11.8002 19.3167 11.2102 18.9067 10.6302L18.8766 10.6602Z" fill="white" fill-opacity="0.5"/>
<path d="M21.857 10.1102C21.857 9.74015 21.857 9.36028 21.857 8.99028C21.857 8.62028 22.057 8.38016 22.357 8.37016C22.657 8.36016 22.877 8.61029 22.877 9.00029C22.877 9.65029 22.877 10.3002 22.877 10.9402C22.877 11.5802 23.077 11.7203 23.507 11.7203C23.937 11.7203 24.1869 11.4702 24.1869 10.9202V8.98027C24.1869 8.61027 24.3969 8.37016 24.6969 8.37016C24.7712 8.37231 24.8441 8.39003 24.9111 8.42216C24.978 8.4543 25.0374 8.50012 25.0855 8.55669C25.1336 8.61325 25.1692 8.67931 25.1901 8.75053C25.211 8.82176 25.2168 8.89667 25.207 8.97026C25.207 9.71026 25.207 10.4502 25.207 11.1902C25.1992 11.4039 25.1494 11.6139 25.0601 11.8082C24.9708 12.0024 24.8439 12.177 24.6868 12.3221C24.5297 12.4671 24.3455 12.5797 24.1447 12.6531C23.9439 12.7266 23.7306 12.7597 23.517 12.7503C23.3036 12.7583 23.0907 12.7235 22.8909 12.648C22.6911 12.5724 22.5085 12.4576 22.3538 12.3103C22.1991 12.1631 22.0754 11.9864 21.99 11.7906C21.9047 11.5948 21.8595 11.3838 21.857 11.1702C21.847 10.8202 21.857 10.4202 21.857 10.1102Z" fill="white" fill-opacity="0.5"/>
<path d="M28.5568 12.7504C28.431 12.7467 28.3107 12.6984 28.2173 12.6141C28.1238 12.5299 28.0634 12.4151 28.0469 12.2904C28.044 12.2283 28.0267 12.1674 27.9963 12.1132C27.966 12.0589 27.9234 12.0126 27.8719 11.9777C27.8205 11.9427 27.7616 11.9202 27.6999 11.912C27.6383 11.9038 27.5756 11.91 27.5168 11.9303H27.2068C26.8068 11.9303 26.4968 11.9303 26.3868 12.4203C26.3688 12.4872 26.3362 12.5493 26.2914 12.6022C26.2465 12.655 26.1906 12.697 26.1276 12.7257C26.0645 12.7544 25.9958 12.7689 25.9265 12.7679C25.8572 12.767 25.7891 12.7507 25.7268 12.7203C25.6051 12.6693 25.5079 12.573 25.4557 12.4518C25.4035 12.3306 25.4003 12.1937 25.4468 12.0702C25.8568 10.9502 26.2868 9.84034 26.7168 8.73034C26.7559 8.62084 26.83 8.52723 26.9276 8.46398C27.0252 8.40074 27.1409 8.37126 27.2568 8.38024C27.3708 8.3751 27.4835 8.40623 27.5787 8.46911C27.6739 8.53199 27.7468 8.62349 27.7869 8.73034C28.2169 9.84034 28.6369 10.9602 29.0469 12.0802C29.0775 12.1573 29.0881 12.2408 29.0776 12.3231C29.0672 12.4054 29.036 12.4837 28.9871 12.5507C28.9381 12.6176 28.873 12.6713 28.7977 12.7062C28.7225 12.7411 28.6395 12.7562 28.5568 12.7504ZM27.2268 10.2704L26.9968 10.8802C27.5368 10.9402 27.5368 10.9403 27.3568 10.4803C27.3268 10.4203 27.3268 10.3204 27.2268 10.2704Z" fill="white" fill-opacity="0.5"/>
<path d="M14.3467 12.7502C14.2659 12.7575 14.1846 12.7445 14.11 12.7126C14.0354 12.6808 13.9699 12.6311 13.9193 12.5676C13.8688 12.5042 13.8347 12.4292 13.8203 12.3494C13.8059 12.2695 13.8115 12.1872 13.8367 12.1101C14.2567 10.9701 14.6967 9.84019 15.1367 8.71019C15.1769 8.60697 15.249 8.51931 15.3425 8.45995C15.4361 8.40059 15.5462 8.37256 15.6567 8.38012C15.7724 8.37279 15.8872 8.40303 15.9845 8.46605C16.0817 8.52908 16.1561 8.62166 16.1966 8.73021C16.6266 9.85021 17.0467 10.9701 17.4667 12.1001C17.4902 12.159 17.5014 12.2222 17.4994 12.2856C17.4974 12.349 17.4823 12.4112 17.4551 12.4685C17.4278 12.5258 17.3891 12.5768 17.3412 12.6184C17.2933 12.66 17.2372 12.6913 17.1766 12.7102C16.9166 12.8202 16.6067 12.7602 16.5467 12.4802C16.4167 11.8702 16.0067 11.9302 15.5467 11.9202C15.0867 11.9102 14.8767 11.9701 14.7967 12.4101C14.7734 12.5106 14.7155 12.5997 14.6333 12.6619C14.5511 12.724 14.4496 12.7552 14.3467 12.7502ZM15.3967 10.9001C15.5767 10.9001 15.7667 10.9701 15.8667 10.9001C15.9667 10.8301 15.8067 10.6603 15.7667 10.5303C15.7267 10.4003 15.7667 10.3701 15.6267 10.3201L15.3967 10.9001Z" fill="white" fill-opacity="0.5"/>
<path d="M29.3369 10.55V9.15015C29.3369 8.63681 29.5069 8.37678 29.8469 8.37012C30.1869 8.37012 30.3669 8.62013 30.3669 9.13013C30.3669 9.91013 30.3669 10.6802 30.3669 11.4502C30.3669 11.6802 30.437 11.7502 30.657 11.7302C30.8261 11.7053 30.9979 11.7053 31.167 11.7302C31.2858 11.7499 31.3921 11.8154 31.4631 11.9126C31.5342 12.0098 31.5643 12.1311 31.547 12.2502C31.5484 12.311 31.5373 12.3713 31.5146 12.4277C31.492 12.4842 31.4583 12.5354 31.4153 12.5784C31.3723 12.6214 31.321 12.6553 31.2645 12.678C31.2081 12.7006 31.1477 12.7116 31.0869 12.7102C30.6669 12.7102 30.2469 12.7102 29.8269 12.7102C29.5169 12.7102 29.3569 12.4901 29.3469 12.1201L29.3369 10.55Z" fill="white" fill-opacity="0.5"/>
<path d="M26.4764 22.8701C26.0264 22.8701 25.5864 22.8701 25.1464 22.8701C24.7064 22.8701 24.5464 22.6701 24.5364 22.3701C24.5264 22.0701 24.7564 21.8501 25.1564 21.8401H27.8164C28.2264 21.8401 28.4363 22.0401 28.4363 22.3601C28.4363 22.6801 28.2163 22.8601 27.8063 22.8701C27.3963 22.8801 26.9164 22.8701 26.4764 22.8701Z" fill="white" fill-opacity="0.5"/>
</svg>
