<svg width="21" height="20" viewBox="0 0 21 20" fill="none" xmlns="http://www.w3.org/2000/svg">
<path d="M4.72739 20C4.58056 19.9246 4.42346 19.8644 4.28935 19.7705C3.92228 19.513 3.75098 19.1474 3.75098 18.7015C3.75098 18.1142 3.75098 17.5298 3.75098 16.944C3.75098 12.9988 3.75098 9.0537 3.75098 5.10855C3.75098 4.55941 3.96241 4.13948 4.45575 3.88008C4.64356 3.78792 4.85111 3.74321 5.06021 3.74989C9.60442 3.74989 14.1486 3.74989 18.6928 3.74989C19.472 3.74989 20.0016 4.28386 20.0016 5.06597C20.0042 9.60366 20.0042 14.1412 20.0016 18.6785C20.0016 19.3637 19.6433 19.8042 18.9664 19.9687C18.9581 19.9687 18.9537 19.9883 18.9473 19.9985L4.72739 20ZM5.00099 11.8554C5.00099 14.0882 4.99951 16.3211 4.99658 18.5542C4.99658 18.7162 5.03378 18.7544 5.19627 18.7539C9.64977 18.749 14.1036 18.749 18.5578 18.7539C18.7198 18.7539 18.7579 18.7172 18.7579 18.5547C18.7527 14.1019 18.7527 9.64803 18.7579 5.19322C18.7579 5.03171 18.7207 4.99354 18.5582 4.99354C14.1054 4.99876 9.65239 4.99876 5.19921 4.99354C5.03721 4.99354 4.99854 5.03024 4.99903 5.19322C5.00392 7.41459 5.00458 9.6353 5.00099 11.8554Z" fill="white" fill-opacity="0.5"/>
<path d="M0.00097982 0.976829C0.107187 0.838809 0.130194 0.659679 0.237869 0.520191C0.359784 0.354486 0.519934 0.220692 0.704681 0.130193C0.889428 0.0396945 1.0933 -0.0048288 1.29895 0.000414938C1.86523 0.000414938 2.4315 0.000414938 2.99777 0.000414938C6.96184 0.000414938 10.9262 0.000414938 14.891 0.000414938C15.4396 0.000414938 15.8605 0.209401 16.1209 0.702258C16.2097 0.877127 16.2545 1.07098 16.2516 1.26706C16.2545 1.63169 16.2491 1.99632 16.255 2.36045C16.255 2.46519 16.2369 2.50729 16.1199 2.50435C15.7945 2.49603 15.4685 2.49407 15.1411 2.50435C15.0094 2.50875 14.9942 2.4554 14.9982 2.34773C15.0045 2.04869 14.9908 1.74867 15.004 1.45011C15.0109 1.29349 14.9771 1.24455 14.8083 1.24602C13.7932 1.25532 12.7776 1.25091 11.762 1.25091C8.32524 1.25091 4.88845 1.24928 1.45166 1.24602C1.27302 1.24602 1.2461 1.29496 1.2461 1.45941C1.251 5.90475 1.251 10.3503 1.2461 14.7959C1.2461 14.9677 1.28525 15.0137 1.45606 15.0049C1.76147 14.9893 2.06785 15.0049 2.37374 14.9981C2.4775 14.9981 2.50443 15.0269 2.50247 15.1283C2.4966 15.4601 2.49611 15.7924 2.50247 16.1243C2.50247 16.228 2.47262 16.2544 2.3718 16.253C2.00766 16.2471 1.64303 16.253 1.2784 16.2496C0.684231 16.2403 0.262345 15.9299 0.0592313 15.3647C0.0474849 15.3314 0.0509009 15.2834 0 15.2741L0.00097982 0.976829Z" fill="white" fill-opacity="0.5"/>
<path d="M11.8961 15.625C10.2624 15.625 8.62883 15.625 6.99543 15.625C6.68856 15.625 6.44139 15.5369 6.31463 15.2413C6.18248 14.9344 6.30337 14.6926 6.5246 14.4724C7.71946 13.283 8.91188 12.0921 10.1019 10.8995C10.4645 10.5363 10.7954 10.5383 11.1615 10.9039C11.7689 11.5113 12.3811 12.1143 12.9797 12.73C13.107 12.8602 13.1681 12.8421 13.2773 12.7226C13.4731 12.5068 13.6869 12.3042 13.8964 12.0996C14.2038 11.7981 14.5542 11.7937 14.8582 12.0957C15.6662 12.8988 16.4689 13.7064 17.2755 14.5105C17.484 14.7181 17.5691 14.9589 17.4546 15.2364C17.3401 15.5139 17.0997 15.6279 16.7968 15.6279C15.1631 15.624 13.5295 15.623 11.8961 15.625Z" fill="white" fill-opacity="0.5"/>
<path d="M15.0005 10.624C14.6685 10.621 14.3511 10.487 14.1175 10.2511C13.8838 10.0153 13.7528 9.69667 13.7529 9.36466C13.7583 9.03598 13.892 8.72243 14.1255 8.49105C14.359 8.25966 14.6737 8.12879 15.0025 8.1264C15.3345 8.12924 15.652 8.26319 15.8858 8.49906C16.1196 8.73493 16.2506 9.05362 16.2505 9.38571C16.245 9.71444 16.1112 10.028 15.8776 10.2594C15.6441 10.4907 15.3293 10.6216 15.0005 10.624Z" fill="white" fill-opacity="0.5"/>
</svg>
