<svg width="35" height="35" viewBox="0 0 35 35" fill="none" xmlns="http://www.w3.org/2000/svg">
<path d="M34.92 3.12832V3.94815C34.6789 4.45966 34.3391 4.91855 33.92 5.29825C33.04 6.16825 32.16 7.04813 31.29 7.92813C31.1954 8.01685 31.1052 8.11034 31.02 8.20816H33.12C33.4285 8.19254 33.7357 8.25941 34.0099 8.40176C34.284 8.54412 34.5153 8.75688 34.6801 9.01822C34.7835 9.21336 34.8769 9.41372 34.9601 9.61831V33.6183C34.8597 33.9493 34.6751 34.2486 34.4244 34.487C34.1738 34.7253 33.8656 34.8945 33.53 34.9782H4.02002C3.93002 34.8582 3.78003 34.8783 3.66003 34.8483C2.64101 34.6067 1.73005 34.0358 1.06836 33.224C0.406672 32.4123 0.031166 31.4051 0 30.3583C0 21.785 0 13.2148 0 4.6481C0.00466567 3.64711 0.332209 2.67435 0.93396 1.87442C1.53571 1.07449 2.37963 0.490149 3.34009 0.208158C4.093 0.0305378 4.86816 -0.033445 5.64001 0.0182168C5.90002 -0.00838606 6.16268 0.023161 6.40894 0.110746C6.65519 0.198331 6.87891 0.339752 7.06372 0.524564C7.24853 0.709377 7.38983 0.933097 7.47742 1.17935C7.565 1.4256 7.59667 1.68814 7.57007 1.94815C7.57007 3.94815 7.57007 5.87829 7.57007 7.84829C7.57007 8.11829 7.64002 8.17813 7.90002 8.17813H22.3101C22.4095 8.17847 22.5079 8.15839 22.5991 8.1188C22.6903 8.07922 22.7724 8.02101 22.8401 7.94815L25.7301 5.04825L30.2001 0.588285C30.4801 0.257154 30.8785 0.0485886 31.3102 0.00747462C31.7419 -0.0336394 32.1725 0.0959921 32.51 0.368314C33.4941 1.11332 34.3145 2.0528 34.92 3.12832ZM21.41 9.38833H7.95007C7.63007 9.38833 7.52002 9.38825 7.52002 9.79825C7.52002 14.8582 7.52002 19.9282 7.52002 24.9882C7.53918 25.2396 7.50416 25.4923 7.41724 25.7289C7.33032 25.9656 7.19355 26.1806 7.01624 26.3598C6.83892 26.539 6.62523 26.6781 6.38953 26.7675C6.15382 26.8569 5.90159 26.8948 5.65002 26.8783C5.17002 26.8783 4.65009 26.8783 4.22009 26.8783C3.75938 26.9277 3.31314 27.0686 2.90784 27.2931C2.50254 27.5177 2.14637 27.8213 1.86023 28.1857C1.57409 28.5501 1.36379 28.9679 1.24182 29.4149C1.11985 29.8619 1.08864 30.329 1.15002 30.7882C1.2867 31.6632 1.74026 32.4573 2.42432 33.0197C3.10837 33.582 3.97514 33.8734 4.85999 33.8383H32.9601C33.5501 33.8383 33.75 33.6483 33.75 33.0683V10.1283C33.75 9.55832 33.56 9.36831 32.99 9.36831H30.0901C29.9901 9.36395 29.8904 9.38218 29.7986 9.42203C29.7068 9.46187 29.6252 9.52228 29.5601 9.5983L24.37 14.7882C24.0328 15.1782 23.569 15.4366 23.0601 15.5182C22.193 15.6598 21.318 15.7466 20.4401 15.7782H12.52C12.23 15.7782 12.17 15.8583 12.17 16.1383C12.17 18.0383 12.17 19.9383 12.17 21.8383C12.17 22.1583 12.27 22.1981 12.55 22.1981H25.8301C26.1201 22.1981 26.1801 22.1283 26.1801 21.8483C26.1801 21.0683 26.1801 20.2782 26.1801 19.4882C26.1801 18.9782 26.39 18.6982 26.77 18.7082C27.15 18.7182 27.3401 18.9882 27.3401 19.5082V19.5783C27.3401 22.3083 27.3401 25.0382 27.3401 27.7682C27.3625 27.9627 27.3406 28.1597 27.2761 28.3446C27.2117 28.5295 27.1062 28.6976 26.9678 28.8361C26.8293 28.9745 26.6615 29.0797 26.4766 29.1442C26.2917 29.2087 26.0945 29.2305 25.9 29.2082C22.19 29.2082 18.48 29.2082 14.77 29.2082C14.6148 29.2381 14.4553 29.2381 14.3 29.2082C14.1805 29.1674 14.0791 29.0862 14.0133 28.9784C13.9475 28.8706 13.9216 28.7432 13.9401 28.6183C13.9441 28.491 13.9938 28.3694 14.0801 28.2758C14.1664 28.1821 14.2835 28.1227 14.41 28.1083C14.5231 28.0983 14.6369 28.0983 14.75 28.1083H18.27C18.51 28.1083 18.6001 28.1082 18.6001 27.7982C18.6001 26.4482 18.6001 25.0882 18.6001 23.7382C18.6001 23.4682 18.52 23.4281 18.27 23.4281H12.5C12.22 23.4281 12.17 23.5182 12.17 23.7682C12.17 26.0982 12.17 28.4382 12.17 30.7682C12.17 31.0482 12.17 31.3383 12.17 31.6183C12.1714 31.6901 12.1584 31.7614 12.1318 31.828C12.1053 31.8947 12.0658 31.9553 12.0155 32.0065C11.9652 32.0577 11.9052 32.0984 11.839 32.1261C11.7728 32.1539 11.7018 32.1681 11.63 32.1681C11.4867 32.1771 11.3453 32.1318 11.234 32.0409C11.1228 31.9501 11.0499 31.8204 11.03 31.6781C11.0198 31.555 11.0198 31.4314 11.03 31.3083C11.03 26.2816 11.03 21.2515 11.03 16.2182C11.03 15.9082 10.95 15.8283 10.66 15.8483C10.1937 15.8733 9.72634 15.8733 9.26001 15.8483C9.11582 15.851 8.97633 15.7968 8.87158 15.6977C8.76684 15.5985 8.70529 15.4624 8.70007 15.3183C8.68888 15.1675 8.73698 15.0183 8.83411 14.9025C8.93123 14.7867 9.06972 14.7134 9.22009 14.6981H19.0801C19.1701 14.6981 19.2301 14.6983 19.2201 14.5683C19.2283 13.7947 19.2917 13.0227 19.41 12.2582C19.4519 11.6765 19.7085 11.1312 20.13 10.7282C20.54 10.2482 20.93 9.84833 21.41 9.38833ZM1.12 27.2782C1.5188 26.8379 1.9929 26.4721 2.52002 26.1981C3.45958 25.7732 4.49281 25.5975 5.52002 25.6881C6.22002 25.6881 6.38 25.5383 6.38 24.8283V2.09829C6.39023 1.98185 6.39023 1.86464 6.38 1.7482C6.37755 1.61542 6.32442 1.48854 6.23145 1.39371C6.13847 1.29887 6.01271 1.24327 5.88 1.23819C5.21269 1.17818 4.5404 1.20515 3.88 1.31827C3.0856 1.50397 2.38105 1.96121 1.88806 2.61123C1.39507 3.26125 1.14465 4.06327 1.18005 4.87832V27.2782H1.12ZM30.1901 7.27823L30.0801 7.1481C29.3201 6.3781 28.55 5.61829 27.8 4.84829C27.67 4.71829 27.6 4.76829 27.5 4.84829C25.5 6.84829 23.5 8.8483 21.5 10.8483C21.35 10.9883 21.38 11.0581 21.5 11.1881C22.24 11.9181 22.9701 12.6483 23.6901 13.3883C23.8401 13.5383 23.9201 13.5383 24.0601 13.3883L30.0601 7.38833C30.0601 7.38833 30.17 7.37828 30.17 7.32828L30.1901 7.27823ZM22.9701 23.2782H20.0701C19.8401 23.2782 19.76 23.2783 19.76 23.5683C19.76 24.9283 19.76 26.2981 19.76 27.6581C19.76 27.9081 19.8301 27.9582 20.0601 27.9582H25.9C26.11 27.9582 26.1901 27.9581 26.1801 27.6781C26.1801 26.3081 26.1801 24.9283 26.1801 23.5583C26.1801 23.3283 26.12 23.2782 25.9 23.2782H22.9701ZM31.4601 1.13833C31.3708 1.14076 31.283 1.16152 31.2021 1.19937C31.1213 1.23722 31.049 1.29132 30.99 1.3583C30.77 1.5783 30.5601 1.80821 30.3301 2.00821C30.1001 2.20821 30.2101 2.2283 30.3301 2.3583C31.0801 3.0883 31.81 3.82827 32.55 4.56827C32.67 4.69827 32.74 4.70827 32.87 4.56827C33 4.42827 33.3 4.12811 33.51 3.90811C33.5826 3.85205 33.6415 3.78025 33.682 3.6979C33.7225 3.61556 33.7435 3.52501 33.7435 3.43326C33.7435 3.3415 33.7225 3.25095 33.682 3.16861C33.6415 3.08626 33.5826 3.01421 33.51 2.95816C32.98 2.41816 32.43 1.87829 31.89 1.34829C31.7667 1.25524 31.6143 1.20902 31.4601 1.21817V1.13833ZM28.4601 3.90811C28.5201 3.95811 28.59 3.99826 28.65 4.05826L30.3401 5.73819C30.5601 5.95819 30.77 6.32828 31 6.33828C31.23 6.34829 31.4501 5.93819 31.6901 5.73819C31.9301 5.53819 31.8201 5.48829 31.6901 5.34829L30.02 3.68814C29.79 3.46814 29.5801 3.04828 29.3401 3.07828C29.1001 3.10828 28.86 3.48817 28.62 3.71817L28.55 3.78824L28.4601 3.90811ZM20.5601 12.0783C20.4901 12.7283 20.4101 13.3783 20.3501 14.0783C20.3501 14.4083 20.46 14.5983 20.75 14.5683C21.44 14.5183 22.1301 14.4283 22.8101 14.3583L20.5601 12.0783Z" fill="white" fill-opacity="0.5"/>
</svg>
