<svg width="50" height="56" viewBox="0 0 50 56" fill="none" xmlns="http://www.w3.org/2000/svg">
<path d="M31.369 0.0220298C31.6961 0.130223 31.9737 0.351749 32.1516 0.646386C32.3294 0.941024 32.3959 1.2893 32.339 1.62859C32.339 2.1898 32.1185 2.87206 32.4271 3.27922C32.7357 3.68637 33.3861 3.7195 33.8821 3.95059C37.1452 5.35883 40.0123 7.54484 42.2318 10.3172C44.4514 13.0896 45.9557 16.3632 46.6126 19.8513C46.9561 21.6047 47.0966 23.3921 47.0314 25.1776C47.0078 25.3171 47.0378 25.4601 47.1155 25.5785C47.1932 25.6968 47.3127 25.7819 47.4503 25.816C48.0014 26.014 48.5524 26.278 49.0594 26.4871C49.3486 26.58 49.5982 26.767 49.7681 27.0185C49.938 27.2699 50.0184 27.5708 49.9964 27.8733C49.9964 29.733 49.9964 31.5931 49.9964 33.4528C49.9964 34.3991 49.5666 34.8173 48.6297 34.8503C48.2219 34.8503 47.6817 34.6743 47.4172 34.9384C47.1526 35.2025 47.4172 35.7416 47.3401 36.1598C47.2629 36.5779 47.3401 36.7097 47.3401 36.9738C47.3597 37.1568 47.3377 37.3421 47.2756 37.5154C47.2136 37.6887 47.1131 37.8457 46.9816 37.9748C46.8502 38.1039 46.6912 38.202 46.5166 38.2612C46.342 38.3203 46.1563 38.3391 45.9733 38.3165C44.805 38.3165 43.6366 38.3165 42.4682 38.3165C42.1486 38.3165 41.9832 38.4047 41.8951 38.7238C41.5789 39.8993 41.1083 41.0277 40.4954 42.0799C40.4554 42.132 40.4264 42.1919 40.4102 42.2556C40.3941 42.3192 40.3912 42.3852 40.4015 42.4501C40.4118 42.5149 40.4351 42.5772 40.4702 42.6328C40.5053 42.6883 40.5514 42.7358 40.6056 42.773C41.4433 43.5763 42.2478 44.3906 43.0524 45.2049C43.2139 45.3162 43.3458 45.465 43.437 45.6385C43.5281 45.8119 43.5757 46.0052 43.5757 46.201C43.5757 46.3969 43.5281 46.5896 43.437 46.7631C43.3458 46.9365 43.2139 47.0853 43.0524 47.1967C41.5314 48.7153 40.0103 50.245 38.4782 51.7525C38.3697 51.9092 38.2248 52.037 38.0559 52.1254C37.887 52.2139 37.699 52.2603 37.5083 52.2603C37.3176 52.2603 37.1298 52.2139 36.9608 52.1254C36.7919 52.037 36.6468 51.9092 36.5383 51.7525C35.7007 50.9382 34.874 50.1239 34.0584 49.2766C34.0213 49.222 33.9732 49.1756 33.9172 49.1407C33.8612 49.1057 33.7985 49.0828 33.7332 49.0735C33.6678 49.0642 33.6011 49.0691 33.5375 49.0869C33.474 49.1048 33.4149 49.1357 33.364 49.1777C32.303 49.7833 31.1699 50.2528 29.9913 50.5753C29.7047 50.6523 29.6055 50.7844 29.6055 51.1035C29.6055 52.2699 29.6055 53.436 29.6055 54.6025C29.6055 55.5378 29.1755 56 28.2497 56C26.0453 56 23.896 56 21.7247 56C20.7878 56 20.38 55.5601 20.369 54.6137C20.369 53.4473 20.369 52.2699 20.369 51.1035C20.3817 51.0423 20.3811 50.9791 20.3675 50.9181C20.3539 50.8572 20.3275 50.7999 20.29 50.7499C20.2525 50.7 20.2047 50.6586 20.1499 50.6285C20.0951 50.5984 20.0346 50.5802 19.9722 50.5753C18.7803 50.2407 17.633 49.764 16.5552 49.1557C16.5113 49.1189 16.46 49.0918 16.4047 49.0767C16.3494 49.0616 16.2915 49.0587 16.2349 49.0681C16.1783 49.0776 16.1244 49.0993 16.0769 49.1315C16.0295 49.1637 15.9897 49.2055 15.9601 49.2546C15.1555 50.0799 14.3398 50.8832 13.5242 51.6865C12.7085 52.4898 12.2015 52.4457 11.452 51.6865C9.98238 50.2192 8.48342 48.7226 6.95502 47.1967C6.22756 46.4704 6.23858 45.8876 6.95502 45.1393C7.67146 44.391 8.57524 43.5102 9.4019 42.7069C9.4475 42.6742 9.48609 42.6328 9.51532 42.5849C9.54455 42.5371 9.56387 42.484 9.5721 42.4286C9.58033 42.3731 9.5773 42.3168 9.56322 42.2625C9.54914 42.2083 9.52432 42.1576 9.49016 42.1132C8.86983 41.0426 8.39181 39.8957 8.06826 38.7018C7.98009 38.3606 7.81473 38.2945 7.49509 38.2945C6.39288 38.2945 5.19146 38.2945 4.04517 38.2945C3.85325 38.3261 3.65659 38.3118 3.47119 38.2531C3.28578 38.1944 3.11695 38.0928 2.97834 37.9565C2.83973 37.8203 2.73527 37.6533 2.67359 37.4692C2.6119 37.285 2.59463 37.089 2.62327 36.8969C2.62327 36.3467 2.62327 35.7963 2.62327 35.2571C2.62327 34.938 2.55713 34.795 2.20442 34.817C1.83766 34.8476 1.46898 34.8476 1.10221 34.817C0.809887 34.817 0.529618 34.701 0.322914 34.4946C0.116209 34.2883 0 34.0084 0 33.7166C0 31.6588 0 29.6015 0 27.5327C0.00628193 27.3017 0.0853052 27.078 0.22577 26.8943C0.366236 26.7107 0.561104 26.576 0.782662 26.5091C1.33377 26.278 1.88488 26.0248 2.44701 25.8267C2.59417 25.79 2.72219 25.6999 2.80585 25.5736C2.88951 25.4473 2.92264 25.2939 2.89882 25.1443C2.81421 22.646 3.1268 20.1505 3.82478 17.7498C5.18115 13.1889 7.99059 9.19402 11.8268 6.37145C13.4476 5.16276 15.2376 4.19864 17.1394 3.51026C17.2182 3.49708 17.2935 3.46821 17.3609 3.42536C17.4283 3.38251 17.4864 3.32666 17.5316 3.26095C17.5769 3.19523 17.6084 3.12121 17.6244 3.04307C17.6403 2.96492 17.6404 2.88427 17.6245 2.80611C17.6245 2.36595 17.6245 1.92584 17.6245 1.49668C17.5737 1.18083 17.6365 0.857209 17.802 0.583252C17.9674 0.309295 18.2247 0.102589 18.5282 0L31.369 0.0220298ZM17.6464 5.79921L17.2167 5.96416C14.2307 7.22875 11.606 9.21389 9.57829 11.7413C7.24079 14.6338 5.7867 18.137 5.38983 21.8323C5.26121 23.2517 5.22073 24.6775 5.2686 26.1018C5.296 26.4207 5.21375 26.7395 5.03543 27.0056C4.85712 27.2716 4.59337 27.4691 4.28762 27.5654C3.74754 27.7745 3.18545 28.0388 2.67843 28.2478C2.38084 28.3469 2.31475 28.5117 2.31475 28.8088C2.31475 29.8322 2.31475 30.8449 2.31475 31.8682C2.31475 32.3964 2.4029 32.5501 2.97605 32.5501H47.0093C47.0827 32.5446 47.1565 32.5446 47.2299 32.5501C47.5716 32.6051 47.7148 32.4952 47.6927 32.11C47.6927 31.4938 47.6927 30.8776 47.6927 30.2504C47.6927 29.6232 47.8801 28.9191 47.6046 28.5009C47.329 28.0828 46.5795 27.9175 46.0173 27.7304C45.5984 27.6328 45.2327 27.3791 44.995 27.0212C44.7574 26.6632 44.6657 26.2279 44.7389 25.8047C44.8644 23.6927 44.6901 21.5738 44.2209 19.5106C43.1225 14.8536 40.3494 10.7613 36.4281 8.01105C35.1713 7.10829 33.8047 6.36875 32.361 5.81022V22.3164C32.361 23.4829 31.9532 23.901 30.7959 23.901H19.2337C18.0543 23.901 17.6575 23.5159 17.6575 22.3385V5.81022L17.6464 5.79921ZM10.2948 34.8503H5.68745C4.95999 34.8503 4.98212 34.8502 4.94905 35.5655C4.94905 35.9726 5.09229 36.0276 5.445 36.0276C6.54721 36.0276 7.56125 36.0276 8.61937 36.0276C8.7792 36.0012 8.94273 36.0075 9.09997 36.0464C9.25722 36.0853 9.40491 36.1559 9.53389 36.2538C9.66287 36.3517 9.77041 36.4751 9.85007 36.6159C9.92973 36.7568 9.9798 36.9124 9.99713 37.0732C10.4128 38.7545 11.0936 40.359 12.0141 41.8268C12.1258 41.9564 12.2087 42.1083 12.2574 42.2722C12.3061 42.4362 12.3195 42.6084 12.2965 42.7778C12.2736 42.9473 12.2149 43.1103 12.1245 43.2555C12.034 43.4007 11.9138 43.5249 11.7717 43.6203C11.0112 44.3796 10.2617 45.1503 9.47913 45.8985C9.23664 46.1406 9.25869 46.2614 9.47913 46.4815C10.394 47.3729 11.2977 48.2754 12.1905 49.1998C12.411 49.4199 12.5322 49.4089 12.7416 49.1998C13.4801 48.4405 14.2296 47.7032 14.9461 46.999C15.0478 46.8438 15.182 46.7123 15.3393 46.6137C15.4967 46.5151 15.6735 46.4513 15.8577 46.4272C16.042 46.4032 16.2292 46.4196 16.4067 46.4745C16.5842 46.5294 16.7477 46.622 16.886 46.7459C18.2987 47.6133 19.8382 48.2556 21.4491 48.6496C22.397 48.8917 22.6395 49.2217 22.6505 50.19C22.6615 51.1584 22.6505 52.314 22.6505 53.3704C22.6505 53.6785 22.6505 53.8105 23.0583 53.8105C24.3369 53.8105 25.6154 53.8105 26.894 53.8105C27.2136 53.8105 27.2908 53.7003 27.2797 53.4032C27.2797 52.3028 27.2797 51.2023 27.2797 50.1019C27.2797 49.2546 27.5332 48.8804 28.3819 48.6824C30.0631 48.2801 31.6701 47.6153 33.1436 46.7126C33.2707 46.6039 33.419 46.5231 33.5792 46.4751C33.7395 46.427 33.9081 46.413 34.0741 46.4337C34.2401 46.4544 34.4 46.5095 34.5434 46.5954C34.6869 46.6814 34.8107 46.7963 34.9071 46.9329C35.6897 47.6921 36.4722 48.4733 37.2327 49.2546C37.4422 49.4747 37.5634 49.4857 37.7838 49.2546C38.6987 48.3302 39.6135 47.4172 40.5504 46.5148C40.7709 46.3058 40.7819 46.1847 40.5504 45.9646C39.7568 45.1943 38.9742 44.4019 38.1917 43.6096C38.062 43.5254 37.9516 43.4147 37.8675 43.285C37.7835 43.1554 37.7276 43.0099 37.7037 42.8573C37.6797 42.7048 37.6883 42.5486 37.7287 42.3996C37.7691 42.2505 37.8405 42.1115 37.9382 41.9917C38.8781 40.4525 39.5769 38.7791 40.0103 37.0291C40.0244 36.8756 40.0706 36.7269 40.146 36.5923C40.2213 36.4577 40.3242 36.3402 40.4479 36.2479C40.5715 36.1555 40.7132 36.0902 40.8638 36.0561C41.0144 36.0219 41.1706 36.0197 41.322 36.0496C42.4242 36.0496 43.5264 36.0496 44.5514 36.0496C44.8711 36.0496 45.1026 36.0497 45.0255 35.6316C44.9483 35.2134 45.2127 34.8614 44.5294 34.8724C41.3109 34.8724 38.1035 34.8724 34.885 34.8724C34.5433 34.8724 34.378 34.96 34.356 35.3011C34.3668 35.4293 34.3668 35.5582 34.356 35.6864C33.9021 37.8241 32.7277 39.7419 31.0288 41.1197C29.3298 42.4974 27.2091 43.2517 25.0203 43.2571C22.7734 43.2521 20.6006 42.4546 18.8861 41.0047C17.1717 39.5548 16.026 37.5463 15.6515 35.3344C15.6515 34.9603 15.4531 34.8724 15.1004 34.8724C13.4691 34.8614 11.915 34.8503 10.2948 34.8503ZM30.0133 11.9506C30.0133 8.92448 30.0133 5.89834 30.0133 2.8722C30.0133 2.45404 29.9141 2.322 29.4733 2.33301C26.4606 2.33301 23.4514 2.33301 20.4461 2.33301C19.9942 2.33301 19.917 2.47606 19.917 2.88322C19.917 8.96484 19.917 15.0502 19.917 21.1392C19.917 21.5574 20.0272 21.6341 20.435 21.6341C23.4 21.6341 26.3759 21.6341 29.3519 21.6341C29.8369 21.6341 30.0023 21.546 29.9913 21.0178C30.0023 17.9916 30.0133 14.9768 30.0133 11.9506ZM24.9872 34.8503H18.3079C17.9882 34.8503 17.8559 34.8499 17.9661 35.2571C18.239 36.6145 18.9078 37.8614 19.8884 38.8404C20.869 39.8194 22.1175 40.4867 23.4772 40.7591C25.3154 41.1531 27.2351 40.8147 28.8268 39.8156C30.4184 38.8165 31.5561 37.236 31.9972 35.4113C32.0964 34.9601 31.9973 34.8724 31.5344 34.8724C29.363 34.8614 27.1806 34.8503 24.9872 34.8503Z" fill="white" fill-opacity="0.5"/>
</svg>
