<svg width="20" height="17" viewBox="0 0 20 17" fill="none" xmlns="http://www.w3.org/2000/svg">
<path d="M9.94939 16.9989H2.83168C1.17515 16.9989 0 15.8266 0 14.1704C0 10.3888 0 6.60704 0 2.8251C0 1.18138 1.17458 0 2.81016 0C6.94101 0 11.0719 0 15.2027 0C16.0245 0 16.5296 0.808795 16.1445 1.50627C16.0619 1.66828 15.9356 1.80384 15.7801 1.89759C15.6245 1.99135 15.4459 2.03955 15.2645 2.03675C14.868 2.04527 14.4716 2.03675 14.0785 2.03675H2.85094C2.73829 2.02835 2.62503 2.03852 2.51567 2.06685C2.36259 2.11457 2.23102 2.21456 2.14381 2.34944C2.05659 2.48433 2.01924 2.64559 2.03825 2.80522C2.06108 2.96047 2.13573 3.10336 2.25002 3.21055C2.3643 3.31774 2.51147 3.38289 2.66745 3.39534C2.73767 3.40046 2.80846 3.39534 2.87926 3.39534H17.1362C18.2825 3.39534 18.9836 4.09679 18.9841 5.24352C18.9841 5.70358 18.979 6.16421 18.9875 6.62427C18.9904 6.76115 18.9553 6.79977 18.8176 6.79863C17.7586 6.79239 16.6995 6.79353 15.6399 6.7958C13.9698 6.79921 12.6129 7.90676 12.2685 9.54479C11.8761 11.414 13.2313 13.3156 15.1206 13.5598C15.5788 13.6166 16.0369 13.5893 16.4951 13.5933C17.2721 13.6001 18.0486 13.5933 18.8256 13.5967C18.889 13.5967 18.9904 13.5473 18.9875 13.6893C18.9745 14.305 19.0442 14.9258 18.9604 15.5352C18.8403 16.4212 18.1375 16.9938 17.2359 16.9943C14.8055 16.9989 12.3767 17.0004 9.94939 16.9989Z" fill="#33EAFF"/>
<path d="M18.9838 10.2035C18.9838 10.8197 18.9798 11.436 18.9872 12.0516C18.9872 12.1908 18.9679 12.2442 18.8099 12.2431C17.7339 12.2351 16.6629 12.243 15.5892 12.2368C15.322 12.2364 15.0576 12.1832 14.8109 12.0802C14.5643 11.9772 14.3404 11.8264 14.1519 11.6365C13.9635 11.4465 13.8143 11.2212 13.7128 10.9734C13.6113 10.7255 13.5596 10.46 13.5606 10.1921C13.5611 9.92426 13.6143 9.65917 13.717 9.41196C13.8198 9.16476 13.9702 8.94031 14.1596 8.75145C14.3489 8.56259 14.5736 8.41304 14.8206 8.31133C15.0677 8.20963 15.3323 8.15778 15.5994 8.15875C16.6754 8.15137 17.7463 8.15876 18.8196 8.15308C18.9657 8.15308 18.9895 8.20022 18.9895 8.33142C18.9804 8.95676 18.9838 9.57982 18.9838 10.2035Z" fill="#33EAFF"/>
</svg>
